<svg width="160" height="45" viewBox="0 0 160 45" fill="none" xmlns="http://www.w3.org/2000/svg">
  <path d="M7 33C37.5 31.5 72.5 24.8 142.5 10.5" stroke="#c6cda1" stroke-width="2.4" stroke-linecap="round"/>
  <path d="M33 29.5C33.8 20.8 43.7 14.4 57.8 12.2C53.6 22.7 45.7 28.9 33 29.5Z" fill="#c6cda1"/>
  <path d="M51.5 26.6C54.9 18.5 66.2 15.1 80.3 16.9C73.8 25.7 64.5 29.1 51.5 26.6Z" fill="#c6cda1"/>
  <path d="M71.6 22.7C76.3 15.1 88.1 13.4 101.6 17.4C93.7 24.9 83.8 26.8 71.6 22.7Z" fill="#c6cda1"/>
  <path d="M92.1 18.8C98.5 12.2 110.6 12.5 122.8 18.4C113.3 24.2 103.2 24.3 92.1 18.8Z" fill="#c6cda1"/>
  <path d="M113 14.6C121.1 9.9 132.9 12.4 143.3 20.2C132.4 23.9 122.5 21.9 113 14.6Z" fill="#c6cda1"/>
  <path d="M29.1 30.1C25.5 22.8 28.5 13.3 37.4 5.3C40.1 15.3 37.9 24.1 29.1 30.1Z" fill="#c6cda1"/>
  <path d="M47.3 27.1C44.8 18.9 49.9 9.8 60.5 3.2C61.6 14.3 57.8 22.8 47.3 27.1Z" fill="#c6cda1"/>
  <path d="M67.8 23.4C66.9 14.7 73.7 6.7 85.5 2.5C84.6 13.7 79.2 21.1 67.8 23.4Z" fill="#c6cda1"/>
  <path d="M88.2 19.5C89.2 10.8 97.6 4.4 110 2.7C106.9 13.4 100 19.6 88.2 19.5Z" fill="#c6cda1"/>
  <path d="M109.3 15.3C112.1 7.2 121.7 2.7 134.2 3.5C128.7 13.2 120.9 18 109.3 15.3Z" fill="#c6cda1"/>
</svg>
